<svg width="40" height="40" viewBox="0 0 40 40" fill="none" xmlns="http://www.w3.org/2000/svg">
<path d="M33 7V33H7V7H33ZM32.4444 4H7.55556C5.6 4 4 5.6 4 7.55556V32.4444C4 34.4 5.6 36 7.55556 36H32.4444C34.4 36 36 34.4 36 32.4444V7.55556C36 5.6 34.4 4 32.4444 4Z" fill="#A79CA6"/>
<path d="M17.332 28.333V18.333C17.332 17.921 17.8024 17.6858 18.132 17.933L24.7987 22.933C25.0654 23.133 25.0654 23.533 24.7987 23.733L18.132 28.733C17.8024 28.9802 17.332 28.745 17.332 28.333Z" stroke="#A79CA6" stroke-width="2"/>
<path d="M28.0013 13.3337H10.668V10.667H28.0013V13.3337Z" fill="#A79CA6"/>
</svg>
