<svg width="40" height="40" viewBox="0 0 40 40" fill="none" xmlns="http://www.w3.org/2000/svg">
<path d="M19.982 3.33301C10.782 3.33301 3.33203 10.7997 3.33203 19.9997C3.33203 29.1997 10.782 36.6663 19.982 36.6663C29.1987 36.6663 36.6654 29.1997 36.6654 19.9997C36.6654 10.7997 29.1987 3.33301 19.982 3.33301ZM19.9987 33.333C12.632 33.333 6.66536 27.3663 6.66536 19.9997C6.66536 12.633 12.632 6.66634 19.9987 6.66634C27.3654 6.66634 33.332 12.633 33.332 19.9997C33.332 27.3663 27.3654 33.333 19.9987 33.333ZM20.832 11.6663H18.332V21.6663L27.082 26.9163L28.332 24.8663L20.832 20.4163V11.6663Z" fill="#A79CA6"/>
</svg>
