<svg width="40" height="40" viewBox="0 0 40 40" fill="none" xmlns="http://www.w3.org/2000/svg">
<path d="M38.3346 19.9997L34.268 15.3664L34.8346 9.23307L28.818 7.86641L25.668 2.56641L20.0013 4.99974L14.3346 2.56641L11.1846 7.86641L5.16797 9.21641L5.73464 15.3497L1.66797 19.9997L5.73464 24.6331L5.16797 30.7831L11.1846 32.1497L14.3346 37.4497L20.0013 34.9997L25.668 37.4331L28.818 32.1331L34.8346 30.7664L34.268 24.6331L38.3346 19.9997ZM30.818 23.5164L31.2513 28.1664L26.6846 29.1997L24.3013 33.2164L20.0013 31.3664L15.7013 33.2164L13.318 29.1997L8.7513 28.1664L9.18464 23.4997L6.1013 19.9997L9.18464 16.4664L8.7513 11.8331L13.318 10.8164L15.7013 6.79974L20.0013 8.63307L24.3013 6.78307L26.6846 10.7997L31.2513 11.8331L30.818 16.4831L33.9013 19.9997L30.818 23.5164ZM18.3346 24.9997H21.668V28.3331H18.3346V24.9997ZM18.3346 11.6664H21.668V21.6664H18.3346V11.6664Z" fill="#A79CA6"/>
</svg>
