<svg width="40" height="40" viewBox="0 0 40 40" fill="none" xmlns="http://www.w3.org/2000/svg">
<path d="M35.0013 5H5.0013C3.1513 5 1.66797 6.48333 1.66797 8.33333V28.3333C1.66797 30.1667 3.1513 31.6667 5.0013 31.6667H13.3346V35H26.668V31.6667H35.0013C36.8346 31.6667 38.318 30.1667 38.318 28.3333L38.3346 8.33333C38.3346 6.48333 36.8346 5 35.0013 5ZM35.0013 29H5V8H35.0013V29Z" fill="#A79CA6"/>
<path d="M20 18C21.925 18 23.5 16.425 23.5 14.5C23.5 12.575 21.925 11 20 11C18.075 11 16.5 12.575 16.5 14.5C16.5 16.425 18.075 18 20 18ZM20 13.3333C20.6417 13.3333 21.1667 13.8583 21.1667 14.5C21.1667 15.1417 20.6417 15.6667 20 15.6667C19.3583 15.6667 18.8333 15.1417 18.8333 14.5C18.8333 13.8583 19.3583 13.3333 20 13.3333ZM27 23.3433C27 20.4267 22.3683 19.1667 20 19.1667C17.6317 19.1667 13 20.4267 13 23.3433V25H27V23.3433ZM15.8933 22.6667C16.7567 22.0717 18.495 21.5 20 21.5C21.505 21.5 23.2433 22.0717 24.1067 22.6667H15.8933Z" fill="#A79CA6"/>
</svg>
