<svg width="40" height="40" viewBox="0 0 40 40" fill="none" xmlns="http://www.w3.org/2000/svg">
<path d="M6 9.99967H3.33203V33.333C3.33203 35.1663 4.83203 36.6663 6.66536 36.6663H29.9987V33.9997H6V9.99967ZM33.332 3.33301H13.332C11.4987 3.33301 9.9987 4.83301 9.9987 6.66634V26.6663C9.9987 28.4997 11.4987 29.9997 13.332 29.9997H33.332C35.1654 29.9997 36.6654 28.4997 36.6654 26.6663V6.66634C36.6654 4.83301 35.1654 3.33301 33.332 3.33301ZM34 26.9997H13V5.99966H34V26.9997ZM16.6654 14.9997H29.9987V18.333H16.6654V14.9997ZM16.6654 19.9997H23.332V23.333H16.6654V19.9997ZM16.6654 9.99967H29.9987V13.333H16.6654V9.99967Z" fill="#A79CA6"/>
</svg>
